<?xml version="1.0" encoding="UTF-8" standalone="no"?>
<!DOCTYPE svg PUBLIC "-//W3C//DTD SVG 1.1//EN"
 "http://www.w3.org/Graphics/SVG/1.1/DTD/svg11.dtd">
<!-- Generated by graphviz version 2.47.3 (20210619.1520)
 -->
<!-- Title: dependencies Pages: 1 -->
<svg width="411pt" height="174pt"
 viewBox="0.00 0.00 411.00 173.80" xmlns="http://www.w3.org/2000/svg" xmlns:xlink="http://www.w3.org/1999/xlink">
<g id="graph0" class="graph" transform="scale(1 1) rotate(0) translate(4 169.8)">
<title>dependencies</title>
<polygon fill="white" stroke="transparent" points="-4,4 -4,-169.8 407,-169.8 407,4 -4,4"/>
<text text-anchor="middle" x="201.5" y="-8.2" font-family="sans-serif" font-size="14.00">dependencies</text>
<g id="clust1" class="cluster">
<title>cluster_CoreModule</title>
<polygon fill="none" stroke="black" stroke-dasharray="1,5" points="8,-32.8 8,-157.8 395,-157.8 395,-32.8 8,-32.8"/>
</g>
<g id="clust6" class="cluster">
<title>cluster_CoreModule_providers</title>
<polygon fill="none" stroke="black" points="16,-40.8 16,-92.8 387,-92.8 387,-40.8 16,-40.8"/>
</g>
<!-- AuthInterceptorService -->
<g id="node1" class="node">
<title>AuthInterceptorService</title>
<ellipse fill="#fdb462" stroke="black" cx="277" cy="-66.8" rx="101.82" ry="18"/>
<text text-anchor="middle" x="277" y="-62.6" font-family="Times,serif" font-size="14.00">AuthInterceptorService</text>
</g>
<!-- CoreModule -->
<g id="node3" class="node">
<title>CoreModule</title>
<polygon fill="#8dd3c7" stroke="black" points="227.26,-149.8 224.26,-153.8 203.26,-153.8 200.26,-149.8 140.74,-149.8 140.74,-113.8 227.26,-113.8 227.26,-149.8"/>
<text text-anchor="middle" x="184" y="-127.6" font-family="Times,serif" font-size="14.00">CoreModule</text>
</g>
<!-- AuthInterceptorService&#45;&gt;CoreModule -->
<g id="edge1" class="edge">
<title>AuthInterceptorService&#45;&gt;CoreModule</title>
<path fill="none" stroke="black" d="M201.36,-79.03C201.36,-79.03 201.36,-103.48 201.36,-103.48"/>
<polygon fill="black" stroke="black" points="197.86,-103.48 201.36,-113.48 204.86,-103.48 197.86,-103.48"/>
</g>
<!-- RecipeService -->
<g id="node2" class="node">
<title>RecipeService</title>
<ellipse fill="#fdb462" stroke="black" cx="91" cy="-66.8" rx="66.61" ry="18"/>
<text text-anchor="middle" x="91" y="-62.6" font-family="Times,serif" font-size="14.00">RecipeService</text>
</g>
<!-- RecipeService&#45;&gt;CoreModule -->
<g id="edge2" class="edge">
<title>RecipeService&#45;&gt;CoreModule</title>
<path fill="none" stroke="black" d="M149.21,-75.84C149.21,-75.84 149.21,-103.76 149.21,-103.76"/>
<polygon fill="black" stroke="black" points="145.71,-103.76 149.21,-113.76 152.71,-103.76 145.71,-103.76"/>
</g>
</g>
</svg>
