<?xml version="1.0" encoding="UTF-8" standalone="no"?>
<!DOCTYPE svg PUBLIC "-//W3C//DTD SVG 1.1//EN"
 "http://www.w3.org/Graphics/SVG/1.1/DTD/svg11.dtd">
<!-- Generated by graphviz version 2.47.3 (20210619.1520)
 -->
<!-- Title: dependencies Pages: 1 -->
<svg width="668pt" height="247pt"
 viewBox="0.00 0.00 668.00 246.80" xmlns="http://www.w3.org/2000/svg" xmlns:xlink="http://www.w3.org/1999/xlink">
<g id="graph0" class="graph" transform="scale(1 1) rotate(0) translate(4 242.8)">
<title>dependencies</title>
<polygon fill="white" stroke="transparent" points="-4,4 -4,-242.8 664,-242.8 664,4 -4,4"/>
<text text-anchor="middle" x="330" y="-8.2" font-family="sans-serif" font-size="14.00">dependencies</text>
<g id="clust1" class="cluster">
<title>cluster_SharedModule</title>
<polygon fill="none" stroke="black" stroke-dasharray="1,5" points="8,-32.8 8,-230.8 652,-230.8 652,-32.8 8,-32.8"/>
</g>
<g id="clust2" class="cluster">
<title>cluster_SharedModule_declarations</title>
<polygon fill="none" stroke="black" points="24,-40.8 24,-92.8 638,-92.8 638,-40.8 24,-40.8"/>
</g>
<g id="clust8" class="cluster">
<title>cluster_SharedModule_exports</title>
<polygon fill="none" stroke="black" points="16,-170.8 16,-222.8 644,-222.8 644,-170.8 16,-170.8"/>
</g>
<!-- AlertComponent -->
<g id="node1" class="node">
<title>AlertComponent</title>
<polygon fill="#ffffb3" stroke="black" points="630.1,-84.8 519.9,-84.8 519.9,-48.8 630.1,-48.8 630.1,-84.8"/>
<text text-anchor="middle" x="575" y="-62.6" font-family="Times,serif" font-size="14.00">AlertComponent</text>
</g>
<!-- SharedModule -->
<g id="node5" class="node">
<title>SharedModule</title>
<polygon fill="#8dd3c7" stroke="black" points="321.42,-149.8 318.42,-153.8 297.42,-153.8 294.42,-149.8 222.58,-149.8 222.58,-113.8 321.42,-113.8 321.42,-149.8"/>
<text text-anchor="middle" x="272" y="-127.6" font-family="Times,serif" font-size="14.00">SharedModule</text>
</g>
<!-- AlertComponent&#45;&gt;SharedModule -->
<g id="edge1" class="edge">
<title>AlertComponent&#45;&gt;SharedModule</title>
<path fill="none" stroke="black" d="M594.1,-85.07C594.1,-103.36 594.1,-128.8 594.1,-128.8 594.1,-128.8 331.27,-128.8 331.27,-128.8"/>
<polygon fill="black" stroke="black" points="331.27,-125.3 321.27,-128.8 331.27,-132.3 331.27,-125.3"/>
</g>
<!-- DropdownDirective -->
<g id="node2" class="node">
<title>DropdownDirective</title>
<polygon fill="#ffffb3" stroke="black" points="501.96,-84.8 374.04,-84.8 374.04,-48.8 501.96,-48.8 501.96,-84.8"/>
<text text-anchor="middle" x="438" y="-62.6" font-family="Times,serif" font-size="14.00">DropdownDirective</text>
</g>
<!-- DropdownDirective&#45;&gt;SharedModule -->
<g id="edge2" class="edge">
<title>DropdownDirective&#45;&gt;SharedModule</title>
<path fill="none" stroke="black" d="M459.33,-84.81C459.33,-100.85 459.33,-121.8 459.33,-121.8 459.33,-121.8 331.22,-121.8 331.22,-121.8"/>
<polygon fill="black" stroke="black" points="331.22,-118.3 321.22,-121.8 331.22,-125.3 331.22,-118.3"/>
</g>
<!-- LoadingSpinnerComponent -->
<g id="node3" class="node">
<title>LoadingSpinnerComponent</title>
<polygon fill="#ffffb3" stroke="black" points="355.54,-84.8 184.46,-84.8 184.46,-48.8 355.54,-48.8 355.54,-84.8"/>
<text text-anchor="middle" x="270" y="-62.6" font-family="Times,serif" font-size="14.00">LoadingSpinnerComponent</text>
</g>
<!-- LoadingSpinnerComponent&#45;&gt;SharedModule -->
<g id="edge3" class="edge">
<title>LoadingSpinnerComponent&#45;&gt;SharedModule</title>
<path fill="none" stroke="black" d="M272,-84.91C272,-84.91 272,-103.79 272,-103.79"/>
<polygon fill="black" stroke="black" points="268.5,-103.79 272,-113.79 275.5,-103.79 268.5,-103.79"/>
</g>
<!-- PlaceholderDirective -->
<g id="node4" class="node">
<title>PlaceholderDirective</title>
<polygon fill="#ffffb3" stroke="black" points="166.17,-84.8 31.83,-84.8 31.83,-48.8 166.17,-48.8 166.17,-84.8"/>
<text text-anchor="middle" x="99" y="-62.6" font-family="Times,serif" font-size="14.00">PlaceholderDirective</text>
</g>
<!-- PlaceholderDirective&#45;&gt;SharedModule -->
<g id="edge4" class="edge">
<title>PlaceholderDirective&#45;&gt;SharedModule</title>
<path fill="none" stroke="black" d="M118.53,-84.82C118.53,-102.17 118.53,-125.8 118.53,-125.8 118.53,-125.8 212.6,-125.8 212.6,-125.8"/>
<polygon fill="black" stroke="black" points="212.6,-129.3 222.6,-125.8 212.6,-122.3 212.6,-129.3"/>
</g>
<!-- AlertComponent  -->
<g id="node6" class="node">
<title>AlertComponent </title>
<polygon fill="#fb8072" stroke="black" points="635.6,-214.8 522.4,-214.8 522.4,-178.8 635.6,-178.8 635.6,-214.8"/>
<text text-anchor="middle" x="579" y="-192.6" font-family="Times,serif" font-size="14.00">AlertComponent </text>
</g>
<!-- SharedModule&#45;&gt;AlertComponent  -->
<g id="edge5" class="edge">
<title>SharedModule&#45;&gt;AlertComponent </title>
<path fill="none" stroke="black" stroke-dasharray="5,2" d="M321.52,-135.8C403.42,-135.8 558.15,-135.8 558.15,-135.8 558.15,-135.8 558.15,-168.5 558.15,-168.5"/>
<polygon fill="black" stroke="black" points="554.65,-168.5 558.15,-178.5 561.65,-168.5 554.65,-168.5"/>
</g>
<!-- DropdownDirective  -->
<g id="node7" class="node">
<title>DropdownDirective </title>
<polygon fill="#fb8072" stroke="black" points="503.96,-214.8 372.04,-214.8 372.04,-178.8 503.96,-178.8 503.96,-214.8"/>
<text text-anchor="middle" x="438" y="-192.6" font-family="Times,serif" font-size="14.00">DropdownDirective </text>
</g>
<!-- SharedModule&#45;&gt;DropdownDirective  -->
<g id="edge6" class="edge">
<title>SharedModule&#45;&gt;DropdownDirective </title>
<path fill="none" stroke="black" stroke-dasharray="5,2" d="M321.38,-142.8C363.29,-142.8 416.67,-142.8 416.67,-142.8 416.67,-142.8 416.67,-168.52 416.67,-168.52"/>
<polygon fill="black" stroke="black" points="413.17,-168.52 416.67,-178.52 420.17,-168.52 413.17,-168.52"/>
</g>
<!-- LoadingSpinnerComponent  -->
<g id="node8" class="node">
<title>LoadingSpinnerComponent </title>
<polygon fill="#fb8072" stroke="black" points="354.54,-214.8 179.46,-214.8 179.46,-178.8 354.54,-178.8 354.54,-214.8"/>
<text text-anchor="middle" x="267" y="-192.6" font-family="Times,serif" font-size="14.00">LoadingSpinnerComponent </text>
</g>
<!-- SharedModule&#45;&gt;LoadingSpinnerComponent  -->
<g id="edge7" class="edge">
<title>SharedModule&#45;&gt;LoadingSpinnerComponent </title>
<path fill="none" stroke="black" stroke-dasharray="5,2" d="M272,-149.91C272,-149.91 272,-168.79 272,-168.79"/>
<polygon fill="black" stroke="black" points="268.5,-168.79 272,-178.79 275.5,-168.79 268.5,-168.79"/>
</g>
<!-- PlaceholderDirective  -->
<g id="node9" class="node">
<title>PlaceholderDirective </title>
<polygon fill="#fb8072" stroke="black" points="161.67,-214.8 24.33,-214.8 24.33,-178.8 161.67,-178.8 161.67,-214.8"/>
<text text-anchor="middle" x="93" y="-192.6" font-family="Times,serif" font-size="14.00">PlaceholderDirective </text>
</g>
<!-- SharedModule&#45;&gt;PlaceholderDirective  -->
<g id="edge8" class="edge">
<title>SharedModule&#45;&gt;PlaceholderDirective </title>
<path fill="none" stroke="black" stroke-dasharray="5,2" d="M222.6,-137.8C164.31,-137.8 75.22,-137.8 75.22,-137.8 75.22,-137.8 75.22,-168.78 75.22,-168.78"/>
<polygon fill="black" stroke="black" points="71.72,-168.78 75.22,-178.78 78.72,-168.78 71.72,-168.78"/>
</g>
</g>
</svg>
