<?xml version="1.0" encoding="UTF-8" standalone="no"?>
<!DOCTYPE svg PUBLIC "-//W3C//DTD SVG 1.1//EN"
 "http://www.w3.org/Graphics/SVG/1.1/DTD/svg11.dtd">
<!-- Generated by graphviz version 2.47.3 (20210619.1520)
 -->
<!-- Title: dependencies Pages: 1 -->
<svg width="1263pt" height="174pt"
 viewBox="0.00 0.00 1263.00 173.80" xmlns="http://www.w3.org/2000/svg" xmlns:xlink="http://www.w3.org/1999/xlink">
<g id="graph0" class="graph" transform="scale(1 1) rotate(0) translate(4 169.8)">
<title>dependencies</title>
<polygon fill="white" stroke="transparent" points="-4,4 -4,-169.8 1259,-169.8 1259,4 -4,4"/>
<text text-anchor="middle" x="627.5" y="-8.2" font-family="sans-serif" font-size="14.00">dependencies</text>
<g id="clust1" class="cluster">
<title>cluster_RecipesModule</title>
<polygon fill="none" stroke="black" stroke-dasharray="1,5" points="8,-32.8 8,-157.8 1247,-157.8 1247,-32.8 8,-32.8"/>
</g>
<g id="clust2" class="cluster">
<title>cluster_RecipesModule_declarations</title>
<polygon fill="none" stroke="black" points="305,-40.8 305,-92.8 1239,-92.8 1239,-40.8 305,-40.8"/>
</g>
<g id="clust9" class="cluster">
<title>cluster_RecipesModule_imports</title>
<polygon fill="none" stroke="black" points="16,-40.8 16,-92.8 297,-92.8 297,-40.8 16,-40.8"/>
</g>
<!-- HomeComponent -->
<g id="node1" class="node">
<title>HomeComponent</title>
<polygon fill="#ffffb3" stroke="black" points="1230.55,-84.8 1115.45,-84.8 1115.45,-48.8 1230.55,-48.8 1230.55,-84.8"/>
<text text-anchor="middle" x="1173" y="-62.6" font-family="Times,serif" font-size="14.00">HomeComponent</text>
</g>
<!-- RecipesModule -->
<g id="node7" class="node">
<title>RecipesModule</title>
<polygon fill="#8dd3c7" stroke="black" points="660.87,-149.8 657.87,-153.8 636.87,-153.8 633.87,-149.8 557.13,-149.8 557.13,-113.8 660.87,-113.8 660.87,-149.8"/>
<text text-anchor="middle" x="609" y="-127.6" font-family="Times,serif" font-size="14.00">RecipesModule</text>
</g>
<!-- HomeComponent&#45;&gt;RecipesModule -->
<g id="edge1" class="edge">
<title>HomeComponent&#45;&gt;RecipesModule</title>
<path fill="none" stroke="black" d="M1173,-85.09C1173,-107.01 1173,-140.8 1173,-140.8 1173,-140.8 671.05,-140.8 671.05,-140.8"/>
<polygon fill="black" stroke="black" points="671.05,-137.3 661.05,-140.8 671.05,-144.3 671.05,-137.3"/>
</g>
<!-- RecipeDetailComponent -->
<g id="node2" class="node">
<title>RecipeDetailComponent</title>
<polygon fill="#ffffb3" stroke="black" points="1097.41,-84.8 942.59,-84.8 942.59,-48.8 1097.41,-48.8 1097.41,-84.8"/>
<text text-anchor="middle" x="1020" y="-62.6" font-family="Times,serif" font-size="14.00">RecipeDetailComponent</text>
</g>
<!-- RecipeDetailComponent&#45;&gt;RecipesModule -->
<g id="edge2" class="edge">
<title>RecipeDetailComponent&#45;&gt;RecipesModule</title>
<path fill="none" stroke="black" d="M1020,-84.91C1020,-104.14 1020,-131.8 1020,-131.8 1020,-131.8 671.05,-131.8 671.05,-131.8"/>
<polygon fill="black" stroke="black" points="671.05,-128.3 661.05,-131.8 671.05,-135.3 671.05,-128.3"/>
</g>
<!-- RecipeEditComponent -->
<g id="node3" class="node">
<title>RecipeEditComponent</title>
<polygon fill="#ffffb3" stroke="black" points="924.54,-84.8 781.46,-84.8 781.46,-48.8 924.54,-48.8 924.54,-84.8"/>
<text text-anchor="middle" x="853" y="-62.6" font-family="Times,serif" font-size="14.00">RecipeEditComponent</text>
</g>
<!-- RecipeEditComponent&#45;&gt;RecipesModule -->
<g id="edge3" class="edge">
<title>RecipeEditComponent&#45;&gt;RecipesModule</title>
<path fill="none" stroke="black" d="M853,-84.83C853,-101.2 853,-122.8 853,-122.8 853,-122.8 671.04,-122.8 671.04,-122.8"/>
<polygon fill="black" stroke="black" points="671.04,-119.3 661.04,-122.8 671.04,-126.3 671.04,-119.3"/>
</g>
<!-- RecipeItemComponent -->
<g id="node4" class="node">
<title>RecipeItemComponent</title>
<polygon fill="#ffffb3" stroke="black" points="762.86,-84.8 617.14,-84.8 617.14,-48.8 762.86,-48.8 762.86,-84.8"/>
<text text-anchor="middle" x="690" y="-62.6" font-family="Times,serif" font-size="14.00">RecipeItemComponent</text>
</g>
<!-- RecipeItemComponent&#45;&gt;RecipesModule -->
<g id="edge4" class="edge">
<title>RecipeItemComponent&#45;&gt;RecipesModule</title>
<path fill="none" stroke="black" d="M639,-84.91C639,-84.91 639,-103.79 639,-103.79"/>
<polygon fill="black" stroke="black" points="635.5,-103.79 639,-113.79 642.5,-103.79 635.5,-103.79"/>
</g>
<!-- RecipeListComponent -->
<g id="node5" class="node">
<title>RecipeListComponent</title>
<polygon fill="#ffffb3" stroke="black" points="598.98,-84.8 457.02,-84.8 457.02,-48.8 598.98,-48.8 598.98,-84.8"/>
<text text-anchor="middle" x="528" y="-62.6" font-family="Times,serif" font-size="14.00">RecipeListComponent</text>
</g>
<!-- RecipeListComponent&#45;&gt;RecipesModule -->
<g id="edge5" class="edge">
<title>RecipeListComponent&#45;&gt;RecipesModule</title>
<path fill="none" stroke="black" d="M578.03,-84.91C578.03,-84.91 578.03,-103.79 578.03,-103.79"/>
<polygon fill="black" stroke="black" points="574.53,-103.79 578.03,-113.79 581.53,-103.79 574.53,-103.79"/>
</g>
<!-- RecipesComponent -->
<g id="node6" class="node">
<title>RecipesComponent</title>
<polygon fill="#ffffb3" stroke="black" points="438.65,-84.8 313.35,-84.8 313.35,-48.8 438.65,-48.8 438.65,-84.8"/>
<text text-anchor="middle" x="376" y="-62.6" font-family="Times,serif" font-size="14.00">RecipesComponent</text>
</g>
<!-- RecipesComponent&#45;&gt;RecipesModule -->
<g id="edge6" class="edge">
<title>RecipesComponent&#45;&gt;RecipesModule</title>
<path fill="none" stroke="black" d="M376,-84.83C376,-101.2 376,-122.8 376,-122.8 376,-122.8 547,-122.8 547,-122.8"/>
<polygon fill="black" stroke="black" points="547,-126.3 557,-122.8 547,-119.3 547,-126.3"/>
</g>
<!-- RecipesRoutingModule -->
<g id="node8" class="node">
<title>RecipesRoutingModule</title>
<polygon fill="#8dd3c7" stroke="black" points="289.48,-84.8 286.48,-88.8 265.48,-88.8 262.48,-84.8 140.52,-84.8 140.52,-48.8 289.48,-48.8 289.48,-84.8"/>
<text text-anchor="middle" x="215" y="-62.6" font-family="Times,serif" font-size="14.00">RecipesRoutingModule</text>
</g>
<!-- RecipesRoutingModule&#45;&gt;RecipesModule -->
<g id="edge7" class="edge">
<title>RecipesRoutingModule&#45;&gt;RecipesModule</title>
<path fill="none" stroke="black" d="M215,-84.91C215,-104.14 215,-131.8 215,-131.8 215,-131.8 547.09,-131.8 547.09,-131.8"/>
<polygon fill="black" stroke="black" points="547.09,-135.3 557.09,-131.8 547.09,-128.3 547.09,-135.3"/>
</g>
<!-- SharedModule -->
<g id="node9" class="node">
<title>SharedModule</title>
<polygon fill="#8dd3c7" stroke="black" points="122.42,-84.8 119.42,-88.8 98.42,-88.8 95.42,-84.8 23.58,-84.8 23.58,-48.8 122.42,-48.8 122.42,-84.8"/>
<text text-anchor="middle" x="73" y="-62.6" font-family="Times,serif" font-size="14.00">SharedModule</text>
</g>
<!-- SharedModule&#45;&gt;RecipesModule -->
<g id="edge8" class="edge">
<title>SharedModule&#45;&gt;RecipesModule</title>
<path fill="none" stroke="black" d="M73,-85.09C73,-107.01 73,-140.8 73,-140.8 73,-140.8 547.12,-140.8 547.12,-140.8"/>
<polygon fill="black" stroke="black" points="547.12,-144.3 557.12,-140.8 547.12,-137.3 547.12,-144.3"/>
</g>
</g>
</svg>
