<?xml version="1.0" encoding="UTF-8" standalone="no"?>
<!DOCTYPE svg PUBLIC "-//W3C//DTD SVG 1.1//EN"
 "http://www.w3.org/Graphics/SVG/1.1/DTD/svg11.dtd">
<!-- Generated by graphviz version 2.47.3 (20210619.1520)
 -->
<!-- Title: dependencies Pages: 1 -->
<svg width="511pt" height="174pt"
 viewBox="0.00 0.00 511.00 173.80" xmlns="http://www.w3.org/2000/svg" xmlns:xlink="http://www.w3.org/1999/xlink">
<g id="graph0" class="graph" transform="scale(1 1) rotate(0) translate(4 169.8)">
<title>dependencies</title>
<polygon fill="white" stroke="transparent" points="-4,4 -4,-169.8 507,-169.8 507,4 -4,4"/>
<text text-anchor="middle" x="251.5" y="-8.2" font-family="sans-serif" font-size="14.00">dependencies</text>
<g id="clust1" class="cluster">
<title>cluster_ShoppingListModule</title>
<polygon fill="none" stroke="black" stroke-dasharray="1,5" points="8,-32.8 8,-157.8 495,-157.8 495,-32.8 8,-32.8"/>
</g>
<g id="clust5" class="cluster">
<title>cluster_ShoppingListModule_imports</title>
<polygon fill="none" stroke="black" points="373,-40.8 373,-92.8 487,-92.8 487,-40.8 373,-40.8"/>
</g>
<g id="clust2" class="cluster">
<title>cluster_ShoppingListModule_declarations</title>
<polygon fill="none" stroke="black" points="16,-40.8 16,-92.8 365,-92.8 365,-40.8 16,-40.8"/>
</g>
<!-- ShoppingEditComponent -->
<g id="node1" class="node">
<title>ShoppingEditComponent</title>
<polygon fill="#ffffb3" stroke="black" points="357.34,-84.8 198.66,-84.8 198.66,-48.8 357.34,-48.8 357.34,-84.8"/>
<text text-anchor="middle" x="278" y="-62.6" font-family="Times,serif" font-size="14.00">ShoppingEditComponent</text>
</g>
<!-- ShoppingListModule -->
<g id="node3" class="node">
<title>ShoppingListModule</title>
<polygon fill="#8dd3c7" stroke="black" points="345.5,-149.8 342.5,-153.8 321.5,-153.8 318.5,-149.8 210.5,-149.8 210.5,-113.8 345.5,-113.8 345.5,-149.8"/>
<text text-anchor="middle" x="278" y="-127.6" font-family="Times,serif" font-size="14.00">ShoppingListModule</text>
</g>
<!-- ShoppingEditComponent&#45;&gt;ShoppingListModule -->
<g id="edge1" class="edge">
<title>ShoppingEditComponent&#45;&gt;ShoppingListModule</title>
<path fill="none" stroke="black" d="M278,-84.91C278,-84.91 278,-103.79 278,-103.79"/>
<polygon fill="black" stroke="black" points="274.5,-103.79 278,-113.79 281.5,-103.79 274.5,-103.79"/>
</g>
<!-- ShoppingListComponent -->
<g id="node2" class="node">
<title>ShoppingListComponent</title>
<polygon fill="#ffffb3" stroke="black" points="180.28,-84.8 23.72,-84.8 23.72,-48.8 180.28,-48.8 180.28,-84.8"/>
<text text-anchor="middle" x="102" y="-62.6" font-family="Times,serif" font-size="14.00">ShoppingListComponent</text>
</g>
<!-- ShoppingListComponent&#45;&gt;ShoppingListModule -->
<g id="edge2" class="edge">
<title>ShoppingListComponent&#45;&gt;ShoppingListModule</title>
<path fill="none" stroke="black" d="M102,-84.91C102,-104.14 102,-131.8 102,-131.8 102,-131.8 200.46,-131.8 200.46,-131.8"/>
<polygon fill="black" stroke="black" points="200.46,-135.3 210.46,-131.8 200.46,-128.3 200.46,-135.3"/>
</g>
<!-- SharedModule -->
<g id="node4" class="node">
<title>SharedModule</title>
<polygon fill="#8dd3c7" stroke="black" points="479.42,-84.8 476.42,-88.8 455.42,-88.8 452.42,-84.8 380.58,-84.8 380.58,-48.8 479.42,-48.8 479.42,-84.8"/>
<text text-anchor="middle" x="430" y="-62.6" font-family="Times,serif" font-size="14.00">SharedModule</text>
</g>
<!-- SharedModule&#45;&gt;ShoppingListModule -->
<g id="edge3" class="edge">
<title>SharedModule&#45;&gt;ShoppingListModule</title>
<path fill="none" stroke="black" d="M430,-84.91C430,-104.14 430,-131.8 430,-131.8 430,-131.8 355.55,-131.8 355.55,-131.8"/>
<polygon fill="black" stroke="black" points="355.55,-128.3 345.55,-131.8 355.55,-135.3 355.55,-128.3"/>
</g>
</g>
</svg>
