<?xml version="1.0" encoding="UTF-8" standalone="no"?>
<!DOCTYPE svg PUBLIC "-//W3C//DTD SVG 1.1//EN"
 "http://www.w3.org/Graphics/SVG/1.1/DTD/svg11.dtd">
<!-- Generated by graphviz version 2.47.3 (20210619.1520)
 -->
<!-- Title: dependencies Pages: 1 -->
<svg width="676pt" height="247pt"
 viewBox="0.00 0.00 676.00 246.80" xmlns="http://www.w3.org/2000/svg" xmlns:xlink="http://www.w3.org/1999/xlink">
<g id="graph0" class="graph" transform="scale(1 1) rotate(0) translate(4 242.8)">
<title>dependencies</title>
<polygon fill="white" stroke="transparent" points="-4,4 -4,-242.8 672,-242.8 672,4 -4,4"/>
<text text-anchor="middle" x="334" y="-8.2" font-family="sans-serif" font-size="14.00">dependencies</text>
<g id="clust1" class="cluster">
<title>cluster_AppModule</title>
<polygon fill="none" stroke="black" stroke-dasharray="1,5" points="8,-32.8 8,-230.8 660,-230.8 660,-32.8 8,-32.8"/>
</g>
<g id="clust5" class="cluster">
<title>cluster_AppModule_imports</title>
<polygon fill="none" stroke="black" points="286,-40.8 286,-92.8 652,-92.8 652,-40.8 286,-40.8"/>
</g>
<g id="clust7" class="cluster">
<title>cluster_AppModule_bootstrap</title>
<polygon fill="none" stroke="black" points="281,-170.8 281,-222.8 405,-222.8 405,-170.8 281,-170.8"/>
</g>
<g id="clust2" class="cluster">
<title>cluster_AppModule_declarations</title>
<polygon fill="none" stroke="black" points="16,-40.8 16,-92.8 278,-92.8 278,-40.8 16,-40.8"/>
</g>
<!-- AppComponent -->
<g id="node1" class="node">
<title>AppComponent</title>
<polygon fill="#ffffb3" stroke="black" points="269.94,-84.8 164.06,-84.8 164.06,-48.8 269.94,-48.8 269.94,-84.8"/>
<text text-anchor="middle" x="217" y="-62.6" font-family="Times,serif" font-size="14.00">AppComponent</text>
</g>
<!-- AppModule -->
<g id="node3" class="node">
<title>AppModule</title>
<polygon fill="#8dd3c7" stroke="black" points="384.66,-149.8 381.66,-153.8 360.66,-153.8 357.66,-149.8 301.34,-149.8 301.34,-113.8 384.66,-113.8 384.66,-149.8"/>
<text text-anchor="middle" x="343" y="-127.6" font-family="Times,serif" font-size="14.00">AppModule</text>
</g>
<!-- AppComponent&#45;&gt;AppModule -->
<g id="edge1" class="edge">
<title>AppComponent&#45;&gt;AppModule</title>
<path fill="none" stroke="black" d="M217,-84.82C217,-102.17 217,-125.8 217,-125.8 217,-125.8 291.04,-125.8 291.04,-125.8"/>
<polygon fill="black" stroke="black" points="291.04,-129.3 301.04,-125.8 291.04,-122.3 291.04,-129.3"/>
</g>
<!-- HeaderComponent -->
<g id="node2" class="node">
<title>HeaderComponent</title>
<polygon fill="#ffffb3" stroke="black" points="145.74,-84.8 24.26,-84.8 24.26,-48.8 145.74,-48.8 145.74,-84.8"/>
<text text-anchor="middle" x="85" y="-62.6" font-family="Times,serif" font-size="14.00">HeaderComponent</text>
</g>
<!-- HeaderComponent&#45;&gt;AppModule -->
<g id="edge2" class="edge">
<title>HeaderComponent&#45;&gt;AppModule</title>
<path fill="none" stroke="black" d="M85,-85.08C85,-106.12 85,-137.8 85,-137.8 85,-137.8 291.26,-137.8 291.26,-137.8"/>
<polygon fill="black" stroke="black" points="291.26,-141.3 301.26,-137.8 291.26,-134.3 291.26,-141.3"/>
</g>
<!-- AppComponent  -->
<g id="node7" class="node">
<title>AppComponent </title>
<polygon fill="#80b1d3" stroke="black" points="397.44,-214.8 288.56,-214.8 288.56,-178.8 397.44,-178.8 397.44,-214.8"/>
<text text-anchor="middle" x="343" y="-192.6" font-family="Times,serif" font-size="14.00">AppComponent </text>
</g>
<!-- AppModule&#45;&gt;AppComponent  -->
<g id="edge6" class="edge">
<title>AppModule&#45;&gt;AppComponent </title>
<path fill="none" stroke="black" stroke-dasharray="1,5" d="M343,-149.91C343,-149.91 343,-168.79 343,-168.79"/>
<polygon fill="black" stroke="black" points="339.5,-168.79 343,-178.79 346.5,-168.79 339.5,-168.79"/>
</g>
<!-- AppRoutingModule -->
<g id="node4" class="node">
<title>AppRoutingModule</title>
<polygon fill="#8dd3c7" stroke="black" points="644.27,-84.8 641.27,-88.8 620.27,-88.8 617.27,-84.8 515.73,-84.8 515.73,-48.8 644.27,-48.8 644.27,-84.8"/>
<text text-anchor="middle" x="580" y="-62.6" font-family="Times,serif" font-size="14.00">AppRoutingModule</text>
</g>
<!-- AppRoutingModule&#45;&gt;AppModule -->
<g id="edge3" class="edge">
<title>AppRoutingModule&#45;&gt;AppModule</title>
<path fill="none" stroke="black" d="M580,-85.08C580,-106.12 580,-137.8 580,-137.8 580,-137.8 394.83,-137.8 394.83,-137.8"/>
<polygon fill="black" stroke="black" points="394.83,-134.3 384.83,-137.8 394.83,-141.3 394.83,-134.3"/>
</g>
<!-- CoreModule -->
<g id="node5" class="node">
<title>CoreModule</title>
<polygon fill="#8dd3c7" stroke="black" points="497.26,-84.8 494.26,-88.8 473.26,-88.8 470.26,-84.8 410.74,-84.8 410.74,-48.8 497.26,-48.8 497.26,-84.8"/>
<text text-anchor="middle" x="454" y="-62.6" font-family="Times,serif" font-size="14.00">CoreModule</text>
</g>
<!-- CoreModule&#45;&gt;AppModule -->
<g id="edge4" class="edge">
<title>CoreModule&#45;&gt;AppModule</title>
<path fill="none" stroke="black" d="M454,-84.82C454,-102.17 454,-125.8 454,-125.8 454,-125.8 394.96,-125.8 394.96,-125.8"/>
<polygon fill="black" stroke="black" points="394.96,-122.3 384.96,-125.8 394.96,-129.3 394.96,-122.3"/>
</g>
<!-- SharedModule -->
<g id="node6" class="node">
<title>SharedModule</title>
<polygon fill="#8dd3c7" stroke="black" points="392.42,-84.8 389.42,-88.8 368.42,-88.8 365.42,-84.8 293.58,-84.8 293.58,-48.8 392.42,-48.8 392.42,-84.8"/>
<text text-anchor="middle" x="343" y="-62.6" font-family="Times,serif" font-size="14.00">SharedModule</text>
</g>
<!-- SharedModule&#45;&gt;AppModule -->
<g id="edge5" class="edge">
<title>SharedModule&#45;&gt;AppModule</title>
<path fill="none" stroke="black" d="M343,-84.91C343,-84.91 343,-103.79 343,-103.79"/>
<polygon fill="black" stroke="black" points="339.5,-103.79 343,-113.79 346.5,-103.79 339.5,-103.79"/>
</g>
</g>
</svg>
