<?xml version="1.0" encoding="UTF-8" standalone="no"?>
<!DOCTYPE svg PUBLIC "-//W3C//DTD SVG 1.1//EN"
 "http://www.w3.org/Graphics/SVG/1.1/DTD/svg11.dtd">
<!-- Generated by graphviz version 2.47.3 (20210619.1520)
 -->
<!-- Title: dependencies Pages: 1 -->
<svg width="1887pt" height="247pt"
 viewBox="0.00 0.00 1887.00 246.80" xmlns="http://www.w3.org/2000/svg" xmlns:xlink="http://www.w3.org/1999/xlink">
<g id="graph0" class="graph" transform="scale(1 1) rotate(0) translate(4 242.8)">
<title>dependencies</title>
<polygon fill="white" stroke="transparent" points="-4,4 -4,-242.8 1883,-242.8 1883,4 -4,4"/>
<text text-anchor="middle" x="939.5" y="-8.2" font-family="sans-serif" font-size="14.00">dependencies</text>
<g id="clust1" class="cluster">
<title>cluster_AppModule</title>
<polygon fill="none" stroke="black" stroke-dasharray="1,5" points="8,-32.8 8,-230.8 1871,-230.8 1871,-32.8 8,-32.8"/>
</g>
<g id="clust14" class="cluster">
<title>cluster_AppModule_imports</title>
<polygon fill="none" stroke="black" points="1719,-40.8 1719,-92.8 1863,-92.8 1863,-40.8 1719,-40.8"/>
</g>
<g id="clust16" class="cluster">
<title>cluster_AppModule_bootstrap</title>
<polygon fill="none" stroke="black" points="936,-170.8 936,-222.8 1060,-222.8 1060,-170.8 936,-170.8"/>
</g>
<g id="clust2" class="cluster">
<title>cluster_AppModule_declarations</title>
<polygon fill="none" stroke="black" points="16,-40.8 16,-92.8 1711,-92.8 1711,-40.8 16,-40.8"/>
</g>
<!-- AppComponent -->
<g id="node1" class="node">
<title>AppComponent</title>
<polygon fill="#ffffb3" stroke="black" points="1702.94,-84.8 1597.06,-84.8 1597.06,-48.8 1702.94,-48.8 1702.94,-84.8"/>
<text text-anchor="middle" x="1650" y="-62.6" font-family="Times,serif" font-size="14.00">AppComponent</text>
</g>
<!-- AppModule -->
<g id="node12" class="node">
<title>AppModule</title>
<polygon fill="#8dd3c7" stroke="black" points="1039.66,-149.8 1036.66,-153.8 1015.66,-153.8 1012.66,-149.8 956.34,-149.8 956.34,-113.8 1039.66,-113.8 1039.66,-149.8"/>
<text text-anchor="middle" x="998" y="-127.6" font-family="Times,serif" font-size="14.00">AppModule</text>
</g>
<!-- AppComponent&#45;&gt;AppModule -->
<g id="edge1" class="edge">
<title>AppComponent&#45;&gt;AppModule</title>
<path fill="none" stroke="black" d="M1650,-85.08C1650,-106.12 1650,-137.8 1650,-137.8 1650,-137.8 1049.78,-137.8 1049.78,-137.8"/>
<polygon fill="black" stroke="black" points="1049.78,-134.3 1039.78,-137.8 1049.78,-141.3 1049.78,-134.3"/>
</g>
<!-- DropdownDirective -->
<g id="node2" class="node">
<title>DropdownDirective</title>
<polygon fill="#ffffb3" stroke="black" points="1578.96,-84.8 1451.04,-84.8 1451.04,-48.8 1578.96,-48.8 1578.96,-84.8"/>
<text text-anchor="middle" x="1515" y="-62.6" font-family="Times,serif" font-size="14.00">DropdownDirective</text>
</g>
<!-- DropdownDirective&#45;&gt;AppModule -->
<g id="edge2" class="edge">
<title>DropdownDirective&#45;&gt;AppModule</title>
<path fill="none" stroke="black" d="M1515,-84.91C1515,-104.14 1515,-131.8 1515,-131.8 1515,-131.8 1049.87,-131.8 1049.87,-131.8"/>
<polygon fill="black" stroke="black" points="1049.87,-128.3 1039.87,-131.8 1049.87,-135.3 1049.87,-128.3"/>
</g>
<!-- HeaderComponent -->
<g id="node3" class="node">
<title>HeaderComponent</title>
<polygon fill="#ffffb3" stroke="black" points="1432.74,-84.8 1311.26,-84.8 1311.26,-48.8 1432.74,-48.8 1432.74,-84.8"/>
<text text-anchor="middle" x="1372" y="-62.6" font-family="Times,serif" font-size="14.00">HeaderComponent</text>
</g>
<!-- HeaderComponent&#45;&gt;AppModule -->
<g id="edge3" class="edge">
<title>HeaderComponent&#45;&gt;AppModule</title>
<path fill="none" stroke="black" d="M1372,-84.82C1372,-102.17 1372,-125.8 1372,-125.8 1372,-125.8 1049.81,-125.8 1049.81,-125.8"/>
<polygon fill="black" stroke="black" points="1049.81,-122.3 1039.81,-125.8 1049.81,-129.3 1049.81,-122.3"/>
</g>
<!-- HomeComponent -->
<g id="node4" class="node">
<title>HomeComponent</title>
<polygon fill="#ffffb3" stroke="black" points="1292.55,-84.8 1177.45,-84.8 1177.45,-48.8 1292.55,-48.8 1292.55,-84.8"/>
<text text-anchor="middle" x="1235" y="-62.6" font-family="Times,serif" font-size="14.00">HomeComponent</text>
</g>
<!-- HomeComponent&#45;&gt;AppModule -->
<g id="edge4" class="edge">
<title>HomeComponent&#45;&gt;AppModule</title>
<path fill="none" stroke="black" d="M1235,-85.04C1235,-100.37 1235,-119.8 1235,-119.8 1235,-119.8 1049.83,-119.8 1049.83,-119.8"/>
<polygon fill="black" stroke="black" points="1049.83,-116.3 1039.83,-119.8 1049.83,-123.3 1049.83,-116.3"/>
</g>
<!-- RecipeDetailComponent -->
<g id="node5" class="node">
<title>RecipeDetailComponent</title>
<polygon fill="#ffffb3" stroke="black" points="1159.41,-84.8 1004.59,-84.8 1004.59,-48.8 1159.41,-48.8 1159.41,-84.8"/>
<text text-anchor="middle" x="1082" y="-62.6" font-family="Times,serif" font-size="14.00">RecipeDetailComponent</text>
</g>
<!-- RecipeDetailComponent&#45;&gt;AppModule -->
<g id="edge5" class="edge">
<title>RecipeDetailComponent&#45;&gt;AppModule</title>
<path fill="none" stroke="black" d="M1022.31,-84.91C1022.31,-84.91 1022.31,-103.79 1022.31,-103.79"/>
<polygon fill="black" stroke="black" points="1018.81,-103.79 1022.31,-113.79 1025.81,-103.79 1018.81,-103.79"/>
</g>
<!-- RecipeEditComponent -->
<g id="node6" class="node">
<title>RecipeEditComponent</title>
<polygon fill="#ffffb3" stroke="black" points="986.54,-84.8 843.46,-84.8 843.46,-48.8 986.54,-48.8 986.54,-84.8"/>
<text text-anchor="middle" x="915" y="-62.6" font-family="Times,serif" font-size="14.00">RecipeEditComponent</text>
</g>
<!-- RecipeEditComponent&#45;&gt;AppModule -->
<g id="edge6" class="edge">
<title>RecipeEditComponent&#45;&gt;AppModule</title>
<path fill="none" stroke="black" d="M971.47,-84.91C971.47,-84.91 971.47,-103.79 971.47,-103.79"/>
<polygon fill="black" stroke="black" points="967.97,-103.79 971.47,-113.79 974.97,-103.79 967.97,-103.79"/>
</g>
<!-- RecipeItemComponent -->
<g id="node7" class="node">
<title>RecipeItemComponent</title>
<polygon fill="#ffffb3" stroke="black" points="824.86,-84.8 679.14,-84.8 679.14,-48.8 824.86,-48.8 824.86,-84.8"/>
<text text-anchor="middle" x="752" y="-62.6" font-family="Times,serif" font-size="14.00">RecipeItemComponent</text>
</g>
<!-- RecipeItemComponent&#45;&gt;AppModule -->
<g id="edge7" class="edge">
<title>RecipeItemComponent&#45;&gt;AppModule</title>
<path fill="none" stroke="black" d="M752,-85.04C752,-100.37 752,-119.8 752,-119.8 752,-119.8 946.27,-119.8 946.27,-119.8"/>
<polygon fill="black" stroke="black" points="946.27,-123.3 956.27,-119.8 946.27,-116.3 946.27,-123.3"/>
</g>
<!-- RecipeListComponent -->
<g id="node8" class="node">
<title>RecipeListComponent</title>
<polygon fill="#ffffb3" stroke="black" points="660.98,-84.8 519.02,-84.8 519.02,-48.8 660.98,-48.8 660.98,-84.8"/>
<text text-anchor="middle" x="590" y="-62.6" font-family="Times,serif" font-size="14.00">RecipeListComponent</text>
</g>
<!-- RecipeListComponent&#45;&gt;AppModule -->
<g id="edge8" class="edge">
<title>RecipeListComponent&#45;&gt;AppModule</title>
<path fill="none" stroke="black" d="M590,-84.82C590,-102.17 590,-125.8 590,-125.8 590,-125.8 946.25,-125.8 946.25,-125.8"/>
<polygon fill="black" stroke="black" points="946.25,-129.3 956.25,-125.8 946.25,-122.3 946.25,-129.3"/>
</g>
<!-- RecipesComponent -->
<g id="node9" class="node">
<title>RecipesComponent</title>
<polygon fill="#ffffb3" stroke="black" points="500.65,-84.8 375.35,-84.8 375.35,-48.8 500.65,-48.8 500.65,-84.8"/>
<text text-anchor="middle" x="438" y="-62.6" font-family="Times,serif" font-size="14.00">RecipesComponent</text>
</g>
<!-- RecipesComponent&#45;&gt;AppModule -->
<g id="edge9" class="edge">
<title>RecipesComponent&#45;&gt;AppModule</title>
<path fill="none" stroke="black" d="M438,-84.91C438,-104.14 438,-131.8 438,-131.8 438,-131.8 945.91,-131.8 945.91,-131.8"/>
<polygon fill="black" stroke="black" points="945.91,-135.3 955.91,-131.8 945.91,-128.3 945.91,-135.3"/>
</g>
<!-- ShoppingEditComponent -->
<g id="node10" class="node">
<title>ShoppingEditComponent</title>
<polygon fill="#ffffb3" stroke="black" points="357.34,-84.8 198.66,-84.8 198.66,-48.8 357.34,-48.8 357.34,-84.8"/>
<text text-anchor="middle" x="278" y="-62.6" font-family="Times,serif" font-size="14.00">ShoppingEditComponent</text>
</g>
<!-- ShoppingEditComponent&#45;&gt;AppModule -->
<g id="edge10" class="edge">
<title>ShoppingEditComponent&#45;&gt;AppModule</title>
<path fill="none" stroke="black" d="M278,-85.08C278,-106.12 278,-137.8 278,-137.8 278,-137.8 946.18,-137.8 946.18,-137.8"/>
<polygon fill="black" stroke="black" points="946.18,-141.3 956.18,-137.8 946.18,-134.3 946.18,-141.3"/>
</g>
<!-- ShoppingListComponent -->
<g id="node11" class="node">
<title>ShoppingListComponent</title>
<polygon fill="#ffffb3" stroke="black" points="180.28,-84.8 23.72,-84.8 23.72,-48.8 180.28,-48.8 180.28,-84.8"/>
<text text-anchor="middle" x="102" y="-62.6" font-family="Times,serif" font-size="14.00">ShoppingListComponent</text>
</g>
<!-- ShoppingListComponent&#45;&gt;AppModule -->
<g id="edge11" class="edge">
<title>ShoppingListComponent&#45;&gt;AppModule</title>
<path fill="none" stroke="black" d="M102,-85.05C102,-107.82 102,-143.8 102,-143.8 102,-143.8 946.28,-143.8 946.28,-143.8"/>
<polygon fill="black" stroke="black" points="946.28,-147.3 956.28,-143.8 946.28,-140.3 946.28,-147.3"/>
</g>
<!-- AppComponent  -->
<g id="node14" class="node">
<title>AppComponent </title>
<polygon fill="#80b1d3" stroke="black" points="1052.44,-214.8 943.56,-214.8 943.56,-178.8 1052.44,-178.8 1052.44,-214.8"/>
<text text-anchor="middle" x="998" y="-192.6" font-family="Times,serif" font-size="14.00">AppComponent </text>
</g>
<!-- AppModule&#45;&gt;AppComponent  -->
<g id="edge13" class="edge">
<title>AppModule&#45;&gt;AppComponent </title>
<path fill="none" stroke="black" stroke-dasharray="1,5" d="M998,-149.91C998,-149.91 998,-168.79 998,-168.79"/>
<polygon fill="black" stroke="black" points="994.5,-168.79 998,-178.79 1001.5,-168.79 994.5,-168.79"/>
</g>
<!-- AppRoutingModule -->
<g id="node13" class="node">
<title>AppRoutingModule</title>
<polygon fill="#8dd3c7" stroke="black" points="1855.27,-84.8 1852.27,-88.8 1831.27,-88.8 1828.27,-84.8 1726.73,-84.8 1726.73,-48.8 1855.27,-48.8 1855.27,-84.8"/>
<text text-anchor="middle" x="1791" y="-62.6" font-family="Times,serif" font-size="14.00">AppRoutingModule</text>
</g>
<!-- AppRoutingModule&#45;&gt;AppModule -->
<g id="edge12" class="edge">
<title>AppRoutingModule&#45;&gt;AppModule</title>
<path fill="none" stroke="black" d="M1791,-85.05C1791,-107.82 1791,-143.8 1791,-143.8 1791,-143.8 1049.8,-143.8 1049.8,-143.8"/>
<polygon fill="black" stroke="black" points="1049.8,-140.3 1039.8,-143.8 1049.8,-147.3 1049.8,-140.3"/>
</g>
</g>
</svg>
