<?xml version="1.0" encoding="UTF-8" standalone="no"?>
<!DOCTYPE svg PUBLIC "-//W3C//DTD SVG 1.1//EN"
 "http://www.w3.org/Graphics/SVG/1.1/DTD/svg11.dtd">
<!-- Generated by graphviz version 2.47.3 (20210619.1520)
 -->
<!-- Title: dependencies Pages: 1 -->
<svg width="1887pt" height="247pt"
 viewBox="0.00 0.00 1887.00 246.80" xmlns="http://www.w3.org/2000/svg" xmlns:xlink="http://www.w3.org/1999/xlink">
<g id="graph0" class="graph" transform="scale(1 1) rotate(0) translate(4 242.8)">
<title>dependencies</title>
<polygon fill="white" stroke="transparent" points="-4,4 -4,-242.8 1883,-242.8 1883,4 -4,4"/>
<text text-anchor="middle" x="939.5" y="-8.2" font-family="sans-serif" font-size="14.00">dependencies</text>
<g id="clust1" class="cluster">
<title>cluster_AppModule</title>
<polygon fill="none" stroke="black" stroke-dasharray="1,5" points="8,-32.8 8,-230.8 1871,-230.8 1871,-32.8 8,-32.8"/>
</g>
<g id="clust2" class="cluster">
<title>cluster_AppModule_declarations</title>
<polygon fill="none" stroke="black" points="168,-40.8 168,-92.8 1863,-92.8 1863,-40.8 168,-40.8"/>
</g>
<g id="clust14" class="cluster">
<title>cluster_AppModule_imports</title>
<polygon fill="none" stroke="black" points="16,-40.8 16,-92.8 160,-92.8 160,-40.8 16,-40.8"/>
</g>
<g id="clust16" class="cluster">
<title>cluster_AppModule_bootstrap</title>
<polygon fill="none" stroke="black" points="923,-170.8 923,-222.8 1047,-222.8 1047,-170.8 923,-170.8"/>
</g>
<!-- AppComponent -->
<g id="node1" class="node">
<title>AppComponent</title>
<polygon fill="#ffffb3" stroke="black" points="1854.94,-84.8 1749.06,-84.8 1749.06,-48.8 1854.94,-48.8 1854.94,-84.8"/>
<text text-anchor="middle" x="1802" y="-62.6" font-family="Times,serif" font-size="14.00">AppComponent</text>
</g>
<!-- AppModule -->
<g id="node12" class="node">
<title>AppModule</title>
<polygon fill="#8dd3c7" stroke="black" points="1026.66,-149.8 1023.66,-153.8 1002.66,-153.8 999.66,-149.8 943.34,-149.8 943.34,-113.8 1026.66,-113.8 1026.66,-149.8"/>
<text text-anchor="middle" x="985" y="-127.6" font-family="Times,serif" font-size="14.00">AppModule</text>
</g>
<!-- AppComponent&#45;&gt;AppModule -->
<g id="edge1" class="edge">
<title>AppComponent&#45;&gt;AppModule</title>
<path fill="none" stroke="black" d="M1802,-85.05C1802,-107.82 1802,-143.8 1802,-143.8 1802,-143.8 1036.92,-143.8 1036.92,-143.8"/>
<polygon fill="black" stroke="black" points="1036.92,-140.3 1026.92,-143.8 1036.92,-147.3 1036.92,-140.3"/>
</g>
<!-- DropdownDirective -->
<g id="node2" class="node">
<title>DropdownDirective</title>
<polygon fill="#ffffb3" stroke="black" points="1730.96,-84.8 1603.04,-84.8 1603.04,-48.8 1730.96,-48.8 1730.96,-84.8"/>
<text text-anchor="middle" x="1667" y="-62.6" font-family="Times,serif" font-size="14.00">DropdownDirective</text>
</g>
<!-- DropdownDirective&#45;&gt;AppModule -->
<g id="edge2" class="edge">
<title>DropdownDirective&#45;&gt;AppModule</title>
<path fill="none" stroke="black" d="M1667,-85.08C1667,-106.12 1667,-137.8 1667,-137.8 1667,-137.8 1036.89,-137.8 1036.89,-137.8"/>
<polygon fill="black" stroke="black" points="1036.89,-134.3 1026.89,-137.8 1036.89,-141.3 1036.89,-134.3"/>
</g>
<!-- HeaderComponent -->
<g id="node3" class="node">
<title>HeaderComponent</title>
<polygon fill="#ffffb3" stroke="black" points="1584.74,-84.8 1463.26,-84.8 1463.26,-48.8 1584.74,-48.8 1584.74,-84.8"/>
<text text-anchor="middle" x="1524" y="-62.6" font-family="Times,serif" font-size="14.00">HeaderComponent</text>
</g>
<!-- HeaderComponent&#45;&gt;AppModule -->
<g id="edge3" class="edge">
<title>HeaderComponent&#45;&gt;AppModule</title>
<path fill="none" stroke="black" d="M1524,-84.91C1524,-104.14 1524,-131.8 1524,-131.8 1524,-131.8 1036.85,-131.8 1036.85,-131.8"/>
<polygon fill="black" stroke="black" points="1036.85,-128.3 1026.85,-131.8 1036.85,-135.3 1036.85,-128.3"/>
</g>
<!-- HomeComponent -->
<g id="node4" class="node">
<title>HomeComponent</title>
<polygon fill="#ffffb3" stroke="black" points="1444.55,-84.8 1329.45,-84.8 1329.45,-48.8 1444.55,-48.8 1444.55,-84.8"/>
<text text-anchor="middle" x="1387" y="-62.6" font-family="Times,serif" font-size="14.00">HomeComponent</text>
</g>
<!-- HomeComponent&#45;&gt;AppModule -->
<g id="edge4" class="edge">
<title>HomeComponent&#45;&gt;AppModule</title>
<path fill="none" stroke="black" d="M1387,-84.82C1387,-102.17 1387,-125.8 1387,-125.8 1387,-125.8 1036.88,-125.8 1036.88,-125.8"/>
<polygon fill="black" stroke="black" points="1036.88,-122.3 1026.88,-125.8 1036.88,-129.3 1036.88,-122.3"/>
</g>
<!-- RecipeDetailComponent -->
<g id="node5" class="node">
<title>RecipeDetailComponent</title>
<polygon fill="#ffffb3" stroke="black" points="1311.41,-84.8 1156.59,-84.8 1156.59,-48.8 1311.41,-48.8 1311.41,-84.8"/>
<text text-anchor="middle" x="1234" y="-62.6" font-family="Times,serif" font-size="14.00">RecipeDetailComponent</text>
</g>
<!-- RecipeDetailComponent&#45;&gt;AppModule -->
<g id="edge5" class="edge">
<title>RecipeDetailComponent&#45;&gt;AppModule</title>
<path fill="none" stroke="black" d="M1234,-85.04C1234,-100.37 1234,-119.8 1234,-119.8 1234,-119.8 1036.68,-119.8 1036.68,-119.8"/>
<polygon fill="black" stroke="black" points="1036.68,-116.3 1026.68,-119.8 1036.68,-123.3 1036.68,-116.3"/>
</g>
<!-- RecipeEditComponent -->
<g id="node6" class="node">
<title>RecipeEditComponent</title>
<polygon fill="#ffffb3" stroke="black" points="1138.54,-84.8 995.46,-84.8 995.46,-48.8 1138.54,-48.8 1138.54,-84.8"/>
<text text-anchor="middle" x="1067" y="-62.6" font-family="Times,serif" font-size="14.00">RecipeEditComponent</text>
</g>
<!-- RecipeEditComponent&#45;&gt;AppModule -->
<g id="edge6" class="edge">
<title>RecipeEditComponent&#45;&gt;AppModule</title>
<path fill="none" stroke="black" d="M1011.03,-84.91C1011.03,-84.91 1011.03,-103.79 1011.03,-103.79"/>
<polygon fill="black" stroke="black" points="1007.53,-103.79 1011.03,-113.79 1014.53,-103.79 1007.53,-103.79"/>
</g>
<!-- RecipeItemComponent -->
<g id="node7" class="node">
<title>RecipeItemComponent</title>
<polygon fill="#ffffb3" stroke="black" points="976.86,-84.8 831.14,-84.8 831.14,-48.8 976.86,-48.8 976.86,-84.8"/>
<text text-anchor="middle" x="904" y="-62.6" font-family="Times,serif" font-size="14.00">RecipeItemComponent</text>
</g>
<!-- RecipeItemComponent&#45;&gt;AppModule -->
<g id="edge7" class="edge">
<title>RecipeItemComponent&#45;&gt;AppModule</title>
<path fill="none" stroke="black" d="M960.05,-84.91C960.05,-84.91 960.05,-103.79 960.05,-103.79"/>
<polygon fill="black" stroke="black" points="956.55,-103.79 960.05,-113.79 963.55,-103.79 956.55,-103.79"/>
</g>
<!-- RecipeListComponent -->
<g id="node8" class="node">
<title>RecipeListComponent</title>
<polygon fill="#ffffb3" stroke="black" points="812.98,-84.8 671.02,-84.8 671.02,-48.8 812.98,-48.8 812.98,-84.8"/>
<text text-anchor="middle" x="742" y="-62.6" font-family="Times,serif" font-size="14.00">RecipeListComponent</text>
</g>
<!-- RecipeListComponent&#45;&gt;AppModule -->
<g id="edge8" class="edge">
<title>RecipeListComponent&#45;&gt;AppModule</title>
<path fill="none" stroke="black" d="M742,-85.04C742,-100.37 742,-119.8 742,-119.8 742,-119.8 933.23,-119.8 933.23,-119.8"/>
<polygon fill="black" stroke="black" points="933.23,-123.3 943.23,-119.8 933.23,-116.3 933.23,-123.3"/>
</g>
<!-- RecipesComponent -->
<g id="node9" class="node">
<title>RecipesComponent</title>
<polygon fill="#ffffb3" stroke="black" points="652.65,-84.8 527.35,-84.8 527.35,-48.8 652.65,-48.8 652.65,-84.8"/>
<text text-anchor="middle" x="590" y="-62.6" font-family="Times,serif" font-size="14.00">RecipesComponent</text>
</g>
<!-- RecipesComponent&#45;&gt;AppModule -->
<g id="edge9" class="edge">
<title>RecipesComponent&#45;&gt;AppModule</title>
<path fill="none" stroke="black" d="M590,-84.82C590,-102.17 590,-125.8 590,-125.8 590,-125.8 933.1,-125.8 933.1,-125.8"/>
<polygon fill="black" stroke="black" points="933.1,-129.3 943.1,-125.8 933.1,-122.3 933.1,-129.3"/>
</g>
<!-- ShoppingEditComponent -->
<g id="node10" class="node">
<title>ShoppingEditComponent</title>
<polygon fill="#ffffb3" stroke="black" points="509.34,-84.8 350.66,-84.8 350.66,-48.8 509.34,-48.8 509.34,-84.8"/>
<text text-anchor="middle" x="430" y="-62.6" font-family="Times,serif" font-size="14.00">ShoppingEditComponent</text>
</g>
<!-- ShoppingEditComponent&#45;&gt;AppModule -->
<g id="edge10" class="edge">
<title>ShoppingEditComponent&#45;&gt;AppModule</title>
<path fill="none" stroke="black" d="M430,-84.91C430,-104.14 430,-131.8 430,-131.8 430,-131.8 933.28,-131.8 933.28,-131.8"/>
<polygon fill="black" stroke="black" points="933.28,-135.3 943.28,-131.8 933.28,-128.3 933.28,-135.3"/>
</g>
<!-- ShoppingListComponent -->
<g id="node11" class="node">
<title>ShoppingListComponent</title>
<polygon fill="#ffffb3" stroke="black" points="332.28,-84.8 175.72,-84.8 175.72,-48.8 332.28,-48.8 332.28,-84.8"/>
<text text-anchor="middle" x="254" y="-62.6" font-family="Times,serif" font-size="14.00">ShoppingListComponent</text>
</g>
<!-- ShoppingListComponent&#45;&gt;AppModule -->
<g id="edge11" class="edge">
<title>ShoppingListComponent&#45;&gt;AppModule</title>
<path fill="none" stroke="black" d="M254,-85.08C254,-106.12 254,-137.8 254,-137.8 254,-137.8 933.34,-137.8 933.34,-137.8"/>
<polygon fill="black" stroke="black" points="933.34,-141.3 943.34,-137.8 933.34,-134.3 933.34,-141.3"/>
</g>
<!-- AppComponent  -->
<g id="node14" class="node">
<title>AppComponent </title>
<polygon fill="#80b1d3" stroke="black" points="1039.44,-214.8 930.56,-214.8 930.56,-178.8 1039.44,-178.8 1039.44,-214.8"/>
<text text-anchor="middle" x="985" y="-192.6" font-family="Times,serif" font-size="14.00">AppComponent </text>
</g>
<!-- AppModule&#45;&gt;AppComponent  -->
<g id="edge13" class="edge">
<title>AppModule&#45;&gt;AppComponent </title>
<path fill="none" stroke="black" stroke-dasharray="1,5" d="M985,-149.91C985,-149.91 985,-168.79 985,-168.79"/>
<polygon fill="black" stroke="black" points="981.5,-168.79 985,-178.79 988.5,-168.79 981.5,-168.79"/>
</g>
<!-- AppRoutingModule -->
<g id="node13" class="node">
<title>AppRoutingModule</title>
<polygon fill="#8dd3c7" stroke="black" points="152.27,-84.8 149.27,-88.8 128.27,-88.8 125.27,-84.8 23.73,-84.8 23.73,-48.8 152.27,-48.8 152.27,-84.8"/>
<text text-anchor="middle" x="88" y="-62.6" font-family="Times,serif" font-size="14.00">AppRoutingModule</text>
</g>
<!-- AppRoutingModule&#45;&gt;AppModule -->
<g id="edge12" class="edge">
<title>AppRoutingModule&#45;&gt;AppModule</title>
<path fill="none" stroke="black" d="M88,-85.05C88,-107.82 88,-143.8 88,-143.8 88,-143.8 933.24,-143.8 933.24,-143.8"/>
<polygon fill="black" stroke="black" points="933.24,-147.3 943.24,-143.8 933.24,-140.3 933.24,-147.3"/>
</g>
</g>
</svg>
